<svg width="32" height="32" viewBox="0 0 32 32" fill="none" xmlns="http://www.w3.org/2000/svg">
<g clip-path="url(#clip0_134_3195)">
<path d="M6.11755 20.314C5.92517 20.3137 5.73852 20.2485 5.58788 20.1288C5.43724 20.0092 5.33145 19.8421 5.28769 19.6548C5.09603 18.8317 4.99939 17.9894 4.99969 17.1443C4.99223 14.7446 5.77658 12.4096 7.23115 10.5011C8.65247 8.63347 10.6298 7.26517 12.8785 6.59322C12.986 6.56145 13.0987 6.55116 13.2101 6.56294C13.3215 6.57471 13.4296 6.60832 13.528 6.66185C13.6265 6.71537 13.7134 6.78777 13.7839 6.8749C13.8544 6.96202 13.907 7.06218 13.9388 7.16965C13.9705 7.27711 13.9808 7.38979 13.9691 7.50123C13.9573 7.61268 13.9237 7.72071 13.8702 7.81916C13.8166 7.91762 13.7442 8.00457 13.6571 8.07504C13.57 8.14552 13.4698 8.19815 13.3624 8.22991C9.44342 9.38746 6.70635 13.0534 6.70635 17.1443C6.70609 17.8586 6.78769 18.5707 6.94955 19.2665C6.97882 19.3918 6.97938 19.5221 6.9512 19.6476C6.92301 19.7731 6.86681 19.8906 6.78679 19.9914C6.70677 20.0921 6.60501 20.1735 6.48912 20.2293C6.37323 20.2852 6.24621 20.3141 6.11755 20.314ZM16 28.1446C14.5554 28.1485 13.1244 27.8661 11.7897 27.3135C10.455 26.761 9.24305 25.9493 8.22401 24.9254C8.14057 24.8472 8.0737 24.753 8.02737 24.6485C7.98103 24.544 7.95618 24.4312 7.95428 24.3169C7.95239 24.2025 7.97349 24.089 8.01633 23.983C8.05917 23.877 8.12288 23.7807 8.20367 23.6997C8.28447 23.6188 8.3807 23.555 8.48665 23.512C8.5926 23.469 8.70612 23.4477 8.82044 23.4495C8.93477 23.4512 9.04759 23.4759 9.15219 23.5221C9.25679 23.5683 9.35104 23.635 9.42934 23.7183C11.1725 25.4603 13.5362 26.4387 16.0005 26.4382C18.4649 26.4377 20.8282 25.4584 22.5707 23.7158C22.7307 23.5557 22.9478 23.4658 23.1742 23.4658C23.4006 23.4658 23.6176 23.5557 23.7777 23.7158C23.9378 23.8758 24.0277 24.0929 24.0277 24.3193C24.0277 24.5457 23.9378 24.7628 23.7777 24.9228C22.7586 25.9473 21.5465 26.7596 20.2115 27.3126C18.8765 27.8656 17.445 28.1484 16 28.1446ZM25.8526 20.4373C25.723 20.4374 25.5952 20.408 25.4787 20.3513C25.3622 20.2946 25.2601 20.2122 25.1802 20.1102C25.1004 20.0082 25.0447 19.8894 25.0176 19.7627C24.9904 19.6361 24.9925 19.5049 25.0236 19.3791C25.2033 18.6479 25.294 17.8977 25.2937 17.1447C25.2937 12.989 22.5016 9.30725 18.5037 8.19194C18.3957 8.16182 18.2948 8.11074 18.2066 8.04161C18.1184 7.97248 18.0447 7.88665 17.9896 7.78903C17.9346 7.69141 17.8993 7.5839 17.8859 7.47265C17.8724 7.3614 17.8809 7.24858 17.911 7.14063C17.9412 7.03269 17.9922 6.93174 18.0614 6.84354C18.1305 6.75533 18.2163 6.68161 18.314 6.62658C18.4116 6.57155 18.5191 6.53629 18.6303 6.5228C18.7416 6.50932 18.8544 6.51788 18.9624 6.54799C21.2491 7.19328 23.2676 8.55692 24.7198 10.4375C26.2057 12.3568 27.0084 14.7174 27.0003 17.1447C27.0007 18.0354 26.8934 18.9229 26.6808 19.7879C26.6352 19.9731 26.5288 20.1377 26.3787 20.2554C26.2286 20.3732 26.0434 20.4372 25.8526 20.4373Z" fill="black" fill-opacity="0.88"/>
<path d="M16 10.6239C15.3308 10.624 14.6766 10.4256 14.1202 10.0539C13.5637 9.68213 13.13 9.15373 12.8738 8.53549C12.6177 7.91725 12.5506 7.23694 12.6811 6.58058C12.8116 5.92423 13.1338 5.32131 13.607 4.84808C14.0801 4.37485 14.683 4.05257 15.3394 3.92198C15.9957 3.79139 16.676 3.85837 17.2943 4.11445C17.9126 4.37052 18.441 4.80419 18.8128 5.3606C19.1846 5.91702 19.3831 6.5712 19.3831 7.2404C19.3821 8.13737 19.0253 8.99731 18.3911 9.6316C17.7569 10.2659 16.897 10.6227 16 10.6239ZM16 5.56403C15.6684 5.56394 15.3441 5.66223 15.0683 5.84644C14.7925 6.03066 14.5775 6.29254 14.4505 6.59895C14.3236 6.90536 14.2903 7.24254 14.355 7.56785C14.4197 7.89316 14.5794 8.19197 14.8139 8.4265C15.0485 8.66104 15.3473 8.82074 15.6726 8.88543C15.9979 8.95012 16.3351 8.91687 16.6415 8.78991C16.9479 8.66294 17.2098 8.44796 17.394 8.17214C17.5782 7.89633 17.6765 7.57208 17.6764 7.2404C17.6765 6.79557 17.5 6.36889 17.1857 6.05415C16.8713 5.7394 16.4449 5.56235 16 5.56189V5.56403ZM24.6759 25.3737C24.0067 25.3738 23.3525 25.1755 22.796 24.8037C22.2395 24.432 21.8058 23.9036 21.5496 23.2854C21.2935 22.6671 21.2264 21.9868 21.3569 21.3304C21.4874 20.6741 21.8096 20.0712 22.2828 19.5979C22.756 19.1247 23.3589 18.8024 24.0152 18.6718C24.6715 18.5413 25.3519 18.6082 25.9701 18.8643C26.5884 19.1204 27.1169 19.5541 27.4887 20.1105C27.8605 20.6669 28.0589 21.3211 28.0589 21.9903C28.0578 22.8872 27.701 23.7471 27.0668 24.3813C26.4326 25.0156 25.5728 25.3725 24.6759 25.3737ZM24.6759 20.3139C24.3442 20.3138 24.0199 20.4121 23.7441 20.5963C23.4683 20.7805 23.2533 21.0424 23.1264 21.3488C22.9994 21.6552 22.9662 21.9924 23.0308 22.3177C23.0955 22.643 23.2552 22.9418 23.4898 23.1764C23.7243 23.4109 24.0231 23.5706 24.3484 23.6353C24.6737 23.7 25.0109 23.6667 25.3173 23.5398C25.6237 23.4128 25.8856 23.1978 26.0698 22.922C26.254 22.6462 26.3523 22.3219 26.3522 21.9903C26.3517 21.5458 26.1749 21.1198 25.8606 20.8055C25.5464 20.4913 25.1203 20.3145 24.6759 20.3139ZM7.2252 25.3737C6.556 25.3738 5.9018 25.1755 5.34533 24.8037C4.78887 24.432 4.35514 23.9036 4.09898 23.2854C3.84283 22.6671 3.77577 21.9868 3.90627 21.3304C4.03677 20.6741 4.35898 20.0712 4.83215 19.5979C5.30532 19.1247 5.9082 18.8024 6.56454 18.6718C7.22088 18.5413 7.9012 18.6082 8.51947 18.8643C9.13775 19.1204 9.6662 19.5541 10.038 20.1105C10.4098 20.6669 10.6082 21.3211 10.6082 21.9903C10.6072 22.8872 10.2505 23.7472 9.61628 24.3815C8.98207 25.0158 8.12217 25.3726 7.2252 25.3737ZM7.2252 20.3139C6.89353 20.3138 6.56928 20.4121 6.29346 20.5963C6.01765 20.7805 5.80266 21.0424 5.6757 21.3488C5.54873 21.6552 5.51549 21.9924 5.58018 22.3177C5.64486 22.643 5.80457 22.9418 6.0391 23.1764C6.27363 23.4109 6.57245 23.5706 6.89775 23.6353C7.22306 23.7 7.56024 23.6667 7.86666 23.5398C8.17307 23.4128 8.43495 23.1978 8.61916 22.922C8.80338 22.6462 8.90166 22.3219 8.90158 21.9903C8.90112 21.5458 8.72436 21.1197 8.41008 20.8054C8.0958 20.4911 7.66967 20.3143 7.2252 20.3139Z" fill="#202020"/>
</g>
<defs>
<clipPath id="clip0_134_3195">
<rect width="32" height="32" fill="white"/>
</clipPath>
</defs>
</svg>
