<svg width="24" height="24" viewBox="0 0 24 24" fill="none" xmlns="http://www.w3.org/2000/svg">
<path d="M18.5308 18.368H8.19706C7.46917 18.3671 6.77134 18.0776 6.25668 17.5629C5.74201 17.0481 5.45254 16.3503 5.45178 15.6224V8.8355C5.45254 8.10762 5.74201 7.40975 6.25668 6.89503C6.77134 6.3803 7.46917 6.09075 8.19706 6.0899H18.5308C19.2587 6.09075 19.9566 6.38029 20.4713 6.89501C20.986 7.40972 21.2756 8.10759 21.2764 8.8355V9.78366C21.2764 9.9534 21.209 10.1162 21.089 10.2362C20.9689 10.3562 20.8062 10.4237 20.6364 10.4237C20.4667 10.4237 20.3039 10.3562 20.1839 10.2362C20.0638 10.1162 19.9964 9.9534 19.9964 9.78366V8.8355C19.996 8.44693 19.8415 8.0744 19.5667 7.79964C19.2919 7.52488 18.9194 7.37033 18.5308 7.3699H8.19706C7.80855 7.37041 7.43609 7.525 7.1614 7.79975C6.88671 8.0745 6.73221 8.44699 6.73178 8.8355V15.6217C6.73204 16.0104 6.88646 16.383 7.16118 16.6579C7.43589 16.9328 7.80844 17.0875 8.19706 17.088H18.5308C18.9194 17.0876 19.2919 16.933 19.5667 16.6583C19.8415 16.3835 19.996 16.011 19.9964 15.6224V15.3389C19.9964 15.1691 20.0638 15.0063 20.1839 14.8863C20.3039 14.7663 20.4667 14.6989 20.6364 14.6989C20.8062 14.6989 20.9689 14.7663 21.089 14.8863C21.209 15.0063 21.2764 15.1691 21.2764 15.3389V15.6224C21.2756 16.3503 20.986 17.0482 20.4713 17.5629C19.9566 18.0776 19.2587 18.3671 18.5308 18.368Z" fill="#202020"/>
<path d="M8.01148 7.37022C7.86023 7.37045 7.71377 7.31711 7.5981 7.21965C7.48243 7.12218 7.40502 6.9869 7.37959 6.8378C7.35417 6.68869 7.38237 6.5354 7.45921 6.40511C7.53604 6.27483 7.65654 6.17596 7.79932 6.12606L15.0198 3.58878C15.2295 3.51503 15.4539 3.49262 15.674 3.52344C15.8942 3.55425 16.1038 3.63739 16.2852 3.76588C16.4666 3.89437 16.6146 4.06447 16.7168 4.26193C16.8189 4.45939 16.8722 4.67846 16.8723 4.90078V6.72925C16.8723 6.89899 16.8049 7.06178 16.6848 7.1818C16.5648 7.30183 16.402 7.36926 16.2323 7.36926C16.0625 7.36926 15.8998 7.30183 15.7797 7.1818C15.6597 7.06178 15.5923 6.89899 15.5923 6.72925V4.90142C15.5923 4.88362 15.5881 4.86606 15.5799 4.85024C15.5718 4.83442 15.56 4.82079 15.5454 4.8105C15.5309 4.80021 15.5141 4.79356 15.4965 4.79112C15.4789 4.78867 15.4609 4.7905 15.4441 4.79646L8.22396 7.33373C8.1557 7.35778 8.08386 7.37012 8.01148 7.37022ZM18.1411 9.63198H15.2272C15.0574 9.63198 14.8946 9.56455 14.7746 9.44452C14.6546 9.3245 14.5872 9.16171 14.5872 8.99198C14.5872 8.82224 14.6546 8.65945 14.7746 8.53943C14.8946 8.4194 15.0574 8.35198 15.2272 8.35198H18.1411C18.3108 8.35198 18.4736 8.4194 18.5936 8.53943C18.7137 8.65945 18.7811 8.82224 18.7811 8.99198C18.7811 9.16171 18.7137 9.3245 18.5936 9.44452C18.4736 9.56455 18.3108 9.63198 18.1411 9.63198ZM20.6585 14.3747H18.8739C18.4495 14.3747 18.0426 14.2061 17.7425 13.9061C17.4425 13.606 17.2739 13.199 17.2739 12.7747V12.2902C17.2739 11.8659 17.4425 11.4589 17.7425 11.1588C18.0426 10.8588 18.4495 10.6902 18.8739 10.6902H20.6585C21.0829 10.6902 21.4898 10.8588 21.7899 11.1588C22.09 11.4589 22.2585 11.8659 22.2585 12.2902V12.7753C22.2584 13.1996 22.0897 13.6064 21.7897 13.9063C21.4896 14.2062 21.0828 14.3747 20.6585 14.3747ZM18.8739 11.9709C18.789 11.9709 18.7076 12.0046 18.6476 12.0646C18.5876 12.1246 18.5539 12.206 18.5539 12.2909V12.776C18.5539 12.8608 18.5876 12.9422 18.6476 13.0023C18.7076 13.0623 18.789 13.096 18.8739 13.096H20.6585C20.7434 13.096 20.8248 13.0623 20.8848 13.0023C20.9448 12.9422 20.9785 12.8608 20.9785 12.776V12.2902C20.9785 12.2053 20.9448 12.124 20.8848 12.0639C20.8248 12.0039 20.7434 11.9702 20.6585 11.9702L18.8739 11.9709Z" fill="#202020"/>
</svg>
