<svg width="32" height="32" viewBox="0 0 32 32" fill="none" xmlns="http://www.w3.org/2000/svg">
<g clip-path="url(#clip0_134_3206)">
<path d="M10.3531 23.3875H9.5424C8.9873 23.387 8.4551 23.1662 8.06259 22.7737C7.67007 22.3812 7.44931 21.849 7.44875 21.2939V15.1413C7.44943 14.5863 7.67024 14.0542 8.06274 13.6618C8.45524 13.2694 8.98738 13.0487 9.5424 13.0481H10.3531C10.9081 13.0487 11.4402 13.2694 11.8327 13.6618C12.2252 14.0542 12.446 14.5863 12.4467 15.1413V21.2939C12.4462 21.849 12.2254 22.3812 11.8329 22.7737C11.4404 23.1662 10.9082 23.387 10.3531 23.3875ZM9.5424 14.7548C9.43984 14.7548 9.34147 14.7955 9.26891 14.868C9.19635 14.9405 9.15553 15.0388 9.15541 15.1413V21.2939C9.15553 21.3965 9.19634 21.4948 9.26888 21.5674C9.34143 21.6399 9.4398 21.6807 9.5424 21.6809H10.3531C10.4557 21.6807 10.554 21.6399 10.6266 21.5674C10.6991 21.4948 10.7399 21.3965 10.7401 21.2939V15.1413C10.7399 15.0388 10.6991 14.9405 10.6266 14.868C10.554 14.7955 10.4556 14.7548 10.3531 14.7548H9.5424ZM16.2961 23.3875H15.488C14.933 23.3869 14.4009 23.166 14.0085 22.7735C13.616 22.381 13.3953 21.8489 13.3948 21.2939V12.0066C13.3953 11.4516 13.616 10.9195 14.0085 10.527C14.4009 10.1345 14.933 9.91365 15.488 9.91297H16.2987C16.8532 9.91432 17.3847 10.1354 17.7766 10.5279C18.1684 10.9203 18.3888 11.452 18.3893 12.0066V21.2939C18.3888 21.8489 18.1681 22.381 17.7756 22.7735C17.3832 23.166 16.8511 23.3869 16.2961 23.3875ZM15.488 11.6196C15.3854 11.6197 15.2871 11.6606 15.2146 11.7331C15.1422 11.8057 15.1014 11.9041 15.1014 12.0066V21.2939C15.1014 21.3964 15.1422 21.4948 15.2146 21.5674C15.2871 21.6399 15.3854 21.6807 15.488 21.6809H16.2987C16.4012 21.6806 16.4995 21.6398 16.5719 21.5672C16.6444 21.4947 16.6851 21.3964 16.6852 21.2939V12.0066C16.6851 11.9041 16.6444 11.8058 16.5719 11.7333C16.4995 11.6607 16.4012 11.6199 16.2987 11.6196H15.488ZM22.2046 23.3875H21.3939C20.8389 23.3869 20.3068 23.166 19.9144 22.7735C19.522 22.381 19.3013 21.8489 19.3007 21.2939V8.14443C19.3013 7.58941 19.522 7.05727 19.9144 6.66477C20.3068 6.27227 20.8389 6.05146 21.3939 6.05078H22.2046C22.7596 6.05146 23.2917 6.27227 23.6841 6.66477C24.0765 7.05727 24.2972 7.58941 24.2978 8.14443V21.2939C24.2972 21.8489 24.0765 22.381 23.6841 22.7735C23.2917 23.166 22.7596 23.3869 22.2046 23.3875ZM21.3939 7.75745C21.2914 7.75756 21.193 7.79838 21.1206 7.87094C21.0481 7.94351 21.0074 8.04187 21.0074 8.14443V21.2939C21.0074 21.3964 21.0481 21.4948 21.1206 21.5674C21.193 21.6399 21.2914 21.6807 21.3939 21.6809H22.2046C22.3071 21.6806 22.4054 21.6398 22.4778 21.5672C22.5503 21.4947 22.591 21.3964 22.5911 21.2939V8.14443C22.591 8.04191 22.5503 7.94361 22.4778 7.87107C22.4054 7.79853 22.3071 7.75767 22.2046 7.75745H21.3939ZM25.2587 25.9488H6.74133C6.51502 25.9488 6.29797 25.8589 6.13794 25.6989C5.9779 25.5388 5.888 25.3218 5.888 25.0955C5.888 24.8692 5.9779 24.6521 6.13794 24.4921C6.29797 24.332 6.51502 24.2421 6.74133 24.2421H25.2587C25.485 24.2421 25.702 24.332 25.8621 24.4921C26.0221 24.6521 26.112 24.8692 26.112 25.0955C26.112 25.3218 26.0221 25.5388 25.8621 25.6989C25.702 25.8589 25.485 25.9488 25.2587 25.9488Z" fill="black" fill-opacity="0.88"/>
</g>
<defs>
<clipPath id="clip0_134_3206">
<rect width="32" height="32" fill="white"/>
</clipPath>
</defs>
</svg>
