<svg width="32" height="32" viewBox="0 0 32 32" fill="none" xmlns="http://www.w3.org/2000/svg">
<g clip-path="url(#clip0_134_3183)">
<path d="M19.6497 24.7996C19.3339 24.7998 19.0195 24.7567 18.7153 24.6716L10.8497 22.4691C9.96953 22.2226 9.22332 21.6365 8.77524 20.8398C8.32715 20.0431 8.2139 19.101 8.46039 18.2208L11.3434 7.91936C11.5909 7.0398 12.1772 6.29431 12.9736 5.8464C13.77 5.39849 14.7115 5.28471 15.5917 5.53002L23.4573 7.7312C24.3375 7.97793 25.0836 8.56411 25.5317 9.36086C25.9797 10.1576 26.093 11.0997 25.8466 11.9799L22.9641 22.2797C22.7611 23.0031 22.3276 23.6406 21.7295 24.0954C21.1313 24.5502 20.4011 24.7974 19.6497 24.7996ZM14.662 7.10784C14.2822 7.10825 13.913 7.23267 13.6104 7.46217C13.3078 7.69167 13.0884 8.0137 12.9856 8.3793L10.1026 18.6807C9.97829 19.1252 10.0356 19.6009 10.262 20.0031C10.4883 20.4054 10.8652 20.7012 11.3097 20.8256L19.1753 23.0268C19.3954 23.0884 19.6254 23.1061 19.8524 23.0788C20.0793 23.0515 20.2986 22.9798 20.4978 22.8678C20.697 22.7557 20.8722 22.6056 21.0134 22.4258C21.1545 22.246 21.2589 22.0402 21.3206 21.8202L24.2031 11.52C24.265 11.2999 24.2828 11.0697 24.2557 10.8427C24.2286 10.6157 24.157 10.3962 24.045 10.1969C23.933 9.99754 23.7829 9.82221 23.6031 9.68092C23.4233 9.53963 23.2175 9.43515 22.9974 9.37344L15.1305 7.17226C14.978 7.12961 14.8204 7.10794 14.662 7.10784Z" fill="black" fill-opacity="0.88"/>
<path d="M9.54238 26.7295C8.61228 26.7279 7.71437 26.3888 7.01542 25.7752C6.31647 25.1615 5.86401 24.3151 5.74206 23.393L4.44926 13.5583C4.3168 12.551 4.58936 11.5324 5.20713 10.7258C5.82489 9.91928 6.7374 9.39076 7.74441 9.25625L11.2307 8.73401C11.3415 8.71742 11.4545 8.72283 11.5633 8.74992C11.672 8.77701 11.7744 8.82525 11.8645 8.89189C11.9545 8.95853 12.0306 9.04226 12.0884 9.13831C12.1461 9.23435 12.1844 9.34083 12.2009 9.45166C12.2175 9.56249 12.2121 9.6755 12.185 9.78424C12.1579 9.89298 12.1097 9.99532 12.0431 10.0854C11.9764 10.1755 11.8927 10.2516 11.7966 10.3093C11.7006 10.3671 11.5941 10.4053 11.4833 10.4219L7.99017 10.945L7.97481 10.9471C7.6974 10.9834 7.42986 11.074 7.18749 11.2138C6.94512 11.3535 6.73267 11.5397 6.56228 11.7616C6.39189 11.9835 6.26691 12.2368 6.19447 12.507C6.12204 12.7772 6.10358 13.0591 6.14014 13.3365L7.43251 23.1716C7.50065 23.6832 7.752 24.1528 8.13996 24.4933C8.52793 24.8338 9.02619 25.0221 9.54238 25.0233C9.62794 25.0232 9.71343 25.0181 9.79838 25.0079L19.7657 23.0926C19.8761 23.0706 19.9898 23.0706 20.1002 23.0927C20.2105 23.1148 20.3155 23.1585 20.4089 23.2213C20.5023 23.2842 20.5823 23.3648 20.6444 23.4587C20.7065 23.5526 20.7494 23.6578 20.7707 23.7684C20.7919 23.8789 20.7911 23.9926 20.7682 24.1028C20.7454 24.213 20.7009 24.3176 20.6375 24.4106C20.574 24.5036 20.4928 24.5831 20.3984 24.6445C20.3041 24.7059 20.1986 24.7481 20.0879 24.7686L10.0936 26.6886C10.077 26.692 10.0604 26.6945 10.0437 26.6967C9.87749 26.7185 9.71003 26.7295 9.54238 26.7295ZM21.4302 13.6074C21.3505 13.6074 21.2712 13.5962 21.1946 13.5741L14.7345 11.722C14.6267 11.6911 14.5261 11.6394 14.4384 11.5697C14.3506 11.5 14.2775 11.4137 14.2231 11.3157C14.1687 11.2177 14.1341 11.11 14.1213 10.9987C14.1086 10.8873 14.1179 10.7746 14.1487 10.6668C14.1795 10.5591 14.2312 10.4584 14.3009 10.3707C14.3706 10.2829 14.4569 10.2098 14.5549 10.1554C14.6529 10.101 14.7606 10.0664 14.872 10.0536C14.9833 10.0409 15.0961 10.0502 15.2038 10.081L21.6644 11.9336C21.8623 11.9902 22.0332 12.1164 22.1454 12.289C22.2576 12.4616 22.3036 12.6689 22.2749 12.8727C22.2463 13.0766 22.145 13.2632 21.9895 13.3982C21.8341 13.5333 21.6352 13.6075 21.4293 13.6074H21.4302Z" fill="#202020"/>
<path d="M17.6589 16.5207C17.5792 16.5206 17.4999 16.5094 17.4234 16.4874L13.5561 15.3781C13.3424 15.3124 13.1631 15.1657 13.0565 14.9693C12.95 14.7728 12.9247 14.5425 12.9862 14.3276C13.0476 14.1128 13.1909 13.9306 13.3852 13.8203C13.5796 13.7099 13.8094 13.6802 14.0254 13.7375L17.8927 14.8469C18.0906 14.9034 18.2614 15.0296 18.3736 15.2022C18.4858 15.3748 18.5319 15.5822 18.5032 15.786C18.4746 15.9899 18.3732 16.1765 18.2178 16.3115C18.0624 16.4465 17.8635 16.5208 17.6576 16.5207H17.6589Z" fill="#202020"/>
</g>
<defs>
<clipPath id="clip0_134_3183">
<rect width="32" height="32" fill="white"/>
</clipPath>
</defs>
</svg>
