<svg width="32" height="32" viewBox="0 0 32 32" fill="none" xmlns="http://www.w3.org/2000/svg">
<g clip-path="url(#clip0_134_3238)">
<path d="M15.9548 19.5838C15.0639 19.5838 14.1738 19.3611 13.4822 18.9161L6.23273 14.2505C5.4579 13.7517 5.01417 13.0213 5.01587 12.2452C5.01758 11.4691 5.46857 10.7322 6.25321 10.2313L13.568 5.56826C14.9606 4.67994 17.1345 4.6808 18.5173 5.56826L25.7672 10.2356C26.5459 10.7365 26.9896 11.4729 26.9841 12.2494C26.9785 13.026 26.5276 13.7551 25.7468 14.2548L18.432 18.9187C17.7352 19.3624 16.8444 19.5838 15.9548 19.5838ZM14.406 17.4812C15.229 18.0107 16.6814 18.0099 17.5138 17.4791L24.8286 12.8143C25.1085 12.636 25.2761 12.4201 25.2774 12.2375C25.2787 12.0549 25.1166 11.8462 24.8439 11.6705L17.594 7.00528C16.771 6.47536 15.3186 6.47664 14.4862 7.00741L7.17139 11.6726C6.89065 11.8514 6.72297 12.0677 6.72254 12.2511C6.72211 12.4346 6.88425 12.6411 7.15603 12.8161L14.406 17.4812Z" fill="black" fill-opacity="0.88"/>
<path d="M16 27.0998C15.3203 27.1 14.6437 27.008 13.9887 26.8263L9.73313 25.6466C9.135 25.4793 8.60787 25.1212 8.23188 24.6269C7.8559 24.1325 7.65163 23.5289 7.65015 22.9078V14.6983C7.65015 14.472 7.74005 14.255 7.90008 14.0949C8.06011 13.9349 8.27716 13.845 8.50348 13.845C8.7298 13.845 8.94685 13.9349 9.10688 14.0949C9.26691 14.255 9.35681 14.472 9.35681 14.6983V22.9078C9.35741 23.156 9.43904 23.3972 9.58929 23.5948C9.73955 23.7923 9.95021 23.9354 10.1892 24.0022L14.4448 25.1815C15.4624 25.464 16.5377 25.464 17.5552 25.1815L21.8108 24.0022C22.0498 23.9354 22.2605 23.7923 22.4107 23.5948C22.561 23.3972 22.6426 23.156 22.6432 22.9078V14.8306C22.6432 14.6043 22.7331 14.3872 22.8932 14.2272C23.0532 14.0672 23.2702 13.9773 23.4965 13.9773C23.7229 13.9773 23.9399 14.0672 24.0999 14.2272C24.26 14.3872 24.3499 14.6043 24.3499 14.8306V22.9078C24.3484 23.5289 24.1441 24.1325 23.7681 24.6269C23.3922 25.1212 22.865 25.4793 22.2669 25.6466L18.0113 26.8263C17.3563 27.008 16.6797 27.1 16 27.0998ZM26.1308 16.69C25.9045 16.69 25.6874 16.6001 25.5274 16.4401C25.3674 16.28 25.2775 16.063 25.2775 15.8367V12.2454C25.2775 12.0191 25.3674 11.8021 25.5274 11.642C25.6874 11.482 25.9045 11.3921 26.1308 11.3921C26.3571 11.3921 26.5742 11.482 26.7342 11.642C26.8942 11.8021 26.9841 12.0191 26.9841 12.2454V15.8384C26.9837 16.0644 26.8936 16.281 26.7336 16.4407C26.5736 16.6003 26.3568 16.69 26.1308 16.69Z" fill="#202020"/>
</g>
<defs>
<clipPath id="clip0_134_3238">
<rect width="32" height="32" fill="white"/>
</clipPath>
</defs>
</svg>
