<svg width="32" height="32" viewBox="0 0 32 32" fill="none" xmlns="http://www.w3.org/2000/svg">
<g clip-path="url(#clip0_134_3249)">
<path d="M9.33332 23.8986H7.14196C7.00023 23.8986 6.86072 23.8634 6.73602 23.796C6.61132 23.7287 6.50536 23.6313 6.4277 23.5128C6.35005 23.3942 6.30315 23.2582 6.29123 23.117C6.27931 22.9757 6.30276 22.8338 6.35945 22.7039L7.17268 20.8291C7.2153 20.7298 7.27673 20.6397 7.35358 20.5637L11.2892 16.6491C11.37 16.5687 11.466 16.5054 11.5717 16.4628C11.6774 16.4202 11.7906 16.3992 11.9045 16.401C12.0184 16.4028 12.1308 16.4274 12.2351 16.4734C12.3394 16.5194 12.4334 16.5858 12.5116 16.6687L14.08 18.3327C14.2323 18.4941 14.3157 18.7086 14.3125 18.9305C14.3093 19.1524 14.2198 19.3644 14.0629 19.5214L9.93662 23.6477C9.85747 23.7271 9.76345 23.7901 9.65993 23.8331C9.55641 23.8762 9.44543 23.8984 9.33332 23.8986ZM8.44244 22.1919H8.97961L12.2701 18.9014L11.8716 18.4786L8.67156 21.6598L8.44244 22.1919Z" fill="black" fill-opacity="0.88"/>
<path d="M25.1226 24.0691H12.3362C12.1099 24.0691 11.8928 23.9792 11.7328 23.8192C11.5728 23.6592 11.4829 23.4421 11.4829 23.2158C11.4829 22.9895 11.5728 22.7724 11.7328 22.6124C11.8928 22.4524 12.1099 22.3625 12.3362 22.3625H25.1226C25.5089 22.3622 25.8793 22.2089 26.1528 21.936C26.4262 21.6631 26.5803 21.293 26.5813 20.9067V13.2339H8.04096C7.81464 13.2339 7.59759 13.144 7.43756 12.984C7.27753 12.824 7.18762 12.6069 7.18762 12.3806V10.8638C7.18853 10.0249 7.52217 9.22052 8.11535 8.62725C8.70854 8.03399 9.51283 7.70024 10.3518 7.69922H25.1226C25.9617 7.6999 26.7663 8.0335 27.3598 8.6268C27.9533 9.22011 28.2871 10.0246 28.288 10.8638V12.3614C28.288 12.3678 28.288 12.3742 28.288 12.3806C28.288 12.387 28.288 12.3934 28.288 12.3994V20.9067C28.2864 21.7455 27.9523 22.5494 27.3589 23.1422C26.7656 23.735 25.9613 24.0683 25.1226 24.0691ZM8.89429 11.5273H26.5813V10.8638C26.5809 10.4773 26.4271 10.1067 26.1538 9.8334C25.8805 9.56008 25.5099 9.40634 25.1234 9.40589H10.3518C9.9653 9.40634 9.59477 9.5601 9.32153 9.83343C9.04828 10.1068 8.89463 10.4773 8.89429 10.8638V11.5273Z" fill="#202020"/>
<path d="M24.864 16.1819H22.9973C22.771 16.1819 22.554 16.0919 22.3939 15.9319C22.2339 15.7719 22.144 15.5548 22.144 15.3285C22.144 15.1022 22.2339 14.8851 22.3939 14.7251C22.554 14.5651 22.771 14.4752 22.9973 14.4752H24.8644C25.0907 14.4752 25.3078 14.5651 25.4678 14.7251C25.6279 14.8851 25.7178 15.1022 25.7178 15.3285C25.7178 15.5548 25.6279 15.7719 25.4678 15.9319C25.3078 16.0919 25.0907 16.1819 24.8644 16.1819H24.864ZM19.6049 16.1819H17.7374C17.5111 16.1819 17.294 16.0919 17.134 15.9319C16.974 15.7719 16.884 15.5548 16.884 15.3285C16.884 15.1022 16.974 14.8851 17.134 14.7251C17.294 14.5651 17.5111 14.4752 17.7374 14.4752H19.6049C19.8312 14.4752 20.0483 14.5651 20.2083 14.7251C20.3683 14.8851 20.4582 15.1022 20.4582 15.3285C20.4582 15.5548 20.3683 15.7719 20.2083 15.9319C20.0483 16.0919 19.8312 16.1819 19.6049 16.1819ZM8.04096 18.2188C7.81464 18.2188 7.59759 18.1289 7.43756 17.9688C7.27753 17.8088 7.18762 17.5917 7.18762 17.3654V12.3807C7.18762 12.1544 7.27753 11.9373 7.43756 11.7773C7.59759 11.6172 7.81464 11.5273 8.04096 11.5273C8.26727 11.5273 8.48432 11.6172 8.64435 11.7773C8.80438 11.9373 8.89429 12.1544 8.89429 12.3807V17.3654C8.89429 17.4775 8.87222 17.5884 8.82933 17.692C8.78645 17.7955 8.72359 17.8896 8.64435 17.9688C8.56511 18.0481 8.47104 18.1109 8.36751 18.1538C8.26398 18.1967 8.15302 18.2188 8.04096 18.2188Z" fill="#202020"/>
</g>
<defs>
<clipPath id="clip0_134_3249">
<rect width="32" height="32" fill="white"/>
</clipPath>
</defs>
</svg>
