<svg width="32" height="32" viewBox="0 0 32 32" fill="none" xmlns="http://www.w3.org/2000/svg">
<g clip-path="url(#clip0_134_3216)">
<path d="M16 26.9771C15.3023 26.9776 14.6167 26.7946 14.0121 26.4463L7.94707 22.9443C7.34345 22.5945 6.84219 22.0925 6.49336 21.4884C6.14453 20.8842 5.96035 20.1991 5.95923 19.5015V12.4982C5.96035 11.8006 6.14453 11.1155 6.49336 10.5113C6.84219 9.90717 7.34345 9.40515 7.94707 9.05541L14.0121 5.55333C14.6169 5.20551 15.3023 5.02246 16 5.02246C16.6976 5.02246 17.3831 5.20551 17.9878 5.55333L24.0529 9.05541C24.6565 9.40515 25.1578 9.90717 25.5066 10.5113C25.8554 11.1155 26.0396 11.8006 26.0407 12.4982V19.5015C26.0396 20.1991 25.8554 20.8842 25.5066 21.4884C25.1578 22.0925 24.6565 22.5945 24.0529 22.9443L17.9878 26.4463C17.3832 26.7946 16.6977 26.9776 16 26.9771ZM16 6.72837C15.6018 6.72814 15.2105 6.83261 14.8655 7.0313L8.8004 10.5334C8.45591 10.733 8.16982 11.0195 7.97074 11.3643C7.77165 11.709 7.66654 12.1 7.6659 12.4982V19.5015C7.66654 19.8996 7.77165 20.2906 7.97074 20.6354C8.16982 20.9802 8.45591 21.2667 8.8004 21.4663L14.8655 24.9684C15.2107 25.1667 15.6018 25.2711 16 25.2711C16.3981 25.2711 16.7893 25.1667 17.1345 24.9684L23.1995 21.4663C23.544 21.2667 23.8301 20.9802 24.0292 20.6354C24.2283 20.2906 24.3334 19.8996 24.3341 19.5015V12.4982C24.3334 12.1 24.2283 11.709 24.0292 11.3643C23.8301 11.0195 23.544 10.733 23.1995 10.5334L17.1345 7.0313C16.7894 6.83261 16.3982 6.72814 16 6.72837Z" fill="black" fill-opacity="0.88"/>
<path d="M16 19.2562C15.7737 19.2562 15.5566 19.1663 15.3966 19.0063C15.2366 18.8462 15.1467 18.6292 15.1467 18.4029V10.827C15.1467 10.6006 15.2366 10.3836 15.3966 10.2236C15.5566 10.0635 15.7737 9.97363 16 9.97363C16.2263 9.97363 16.4434 10.0635 16.6034 10.2236C16.7634 10.3836 16.8533 10.6006 16.8533 10.827V18.4029C16.8533 18.6292 16.7634 18.8462 16.6034 19.0063C16.4434 19.1663 16.2263 19.2562 16 19.2562ZM16 22.9609C15.7737 22.9609 15.5566 22.871 15.3966 22.711C15.2366 22.551 15.1467 22.3339 15.1467 22.1076V20.7973C15.1467 20.571 15.2366 20.3539 15.3966 20.1939C15.5566 20.0339 15.7737 19.944 16 19.944C16.2263 19.944 16.4434 20.0339 16.6034 20.1939C16.7634 20.3539 16.8533 20.571 16.8533 20.7973V22.1076C16.8533 22.3339 16.7634 22.551 16.6034 22.711C16.4434 22.871 16.2263 22.9609 16 22.9609Z" fill="#202020"/>
</g>
<defs>
<clipPath id="clip0_134_3216">
<rect width="32" height="32" fill="white"/>
</clipPath>
</defs>
</svg>
