<svg width="32" height="32" viewBox="0 0 32 32" fill="none" xmlns="http://www.w3.org/2000/svg">
<g clip-path="url(#clip0_134_3227)">
<path d="M22.7093 28.0528H9.29067C8.08029 28.0515 6.91987 27.57 6.06399 26.7142C5.20812 25.8583 4.7267 24.6979 4.72534 23.4875V10.0692C4.7267 8.85885 5.20812 7.69843 6.06399 6.84256C6.91987 5.98669 8.08029 5.50526 9.29067 5.50391H10.7055C10.9318 5.50391 11.1489 5.59381 11.3089 5.75384C11.4689 5.91387 11.5588 6.13092 11.5588 6.35724C11.5588 6.58356 11.4689 6.80061 11.3089 6.96064C11.1489 7.12067 10.9318 7.21057 10.7055 7.21057H9.29067C8.53272 7.21125 7.806 7.51265 7.27004 8.04861C6.73408 8.58456 6.43269 9.31128 6.43201 10.0692V23.4879C6.43269 24.2459 6.73408 24.9726 7.27004 25.5085C7.806 26.0445 8.53272 26.3459 9.29067 26.3466H22.7093C23.4673 26.3459 24.194 26.0445 24.73 25.5085C25.2659 24.9726 25.5673 24.2459 25.568 23.4879V10.0692C25.5673 9.31128 25.2659 8.58456 24.73 8.04861C24.194 7.51265 23.4673 7.21125 22.7093 7.21057H21.3572C21.1309 7.21057 20.9139 7.12067 20.7538 6.96064C20.5938 6.80061 20.5039 6.58356 20.5039 6.35724C20.5039 6.13092 20.5938 5.91387 20.7538 5.75384C20.9139 5.59381 21.1309 5.50391 21.3572 5.50391H22.7093C23.9197 5.50526 25.0801 5.98669 25.936 6.84256C26.7919 7.69843 27.2733 8.85885 27.2747 10.0692V23.4879C27.2732 24.6982 26.7917 25.8585 25.9359 26.7143C25.08 27.5701 23.9197 28.0515 22.7093 28.0528Z" fill="black" fill-opacity="0.88"/>
<path d="M20.5171 9.05715H11.4829C11.0828 9.0567 10.6992 8.89756 10.4163 8.61464C10.1333 8.33172 9.97421 7.94813 9.97375 7.54803V5.45736C9.97421 5.05726 10.1333 4.67367 10.4163 4.39075C10.6992 4.10783 11.0828 3.94869 11.4829 3.94824H20.5171C20.9172 3.94869 21.3008 4.10783 21.5837 4.39075C21.8666 4.67367 22.0258 5.05726 22.0262 5.45736V7.54803C22.0258 7.94813 21.8666 8.33172 21.5837 8.61464C21.3008 8.89756 20.9172 9.0567 20.5171 9.05715ZM11.6804 7.35048H20.3196V5.65363H11.6804V7.35048Z" fill="#202020"/>
</g>
<defs>
<clipPath id="clip0_134_3227">
<rect width="32" height="32" fill="white"/>
</clipPath>
</defs>
</svg>
